<svg width="101" height="100" viewBox="0 0 101 100" fill="none" xmlns="http://www.w3.org/2000/svg">
<g clip-path="url(#clip0)">
<path d="M87.543 100H12.543C9.09245 100 6.14648 98.7793 3.70508 96.3379C1.26367 93.8965 0.0429687 90.9505 0.0429688 87.5V12.5C0.0429688 9.04948 1.26367 6.10352 3.70508 3.66211C6.14648 1.2207 9.09245 0 12.543 0H87.543C90.9935 0 93.9395 1.2207 96.3809 3.66211C98.8223 6.10352 100.043 9.04948 100.043 12.5V87.5C100.043 90.9505 98.8223 93.8965 96.3809 96.3379C93.9395 98.7793 90.9935 100 87.543 100V100ZM43.793 26.1719C42.556 24.8698 41.5469 24.6745 40.7656 25.5859L19.4766 48.2422C19.0208 48.6979 18.793 49.3001 18.793 50.0488C18.793 50.7975 19.0208 51.4323 19.4766 51.9531L40.7656 74.5117C41.5469 75.3581 42.556 75.1302 43.793 73.8281V26.1719ZM75.043 26.1719C73.8711 24.8698 72.862 24.6745 72.0156 25.5859L50.7266 48.2422C50.2708 48.6979 50.043 49.3001 50.043 50.0488C50.043 50.7975 50.2708 51.4323 50.7266 51.9531L72.0156 74.5117C72.862 75.3581 73.8711 75.1302 75.043 73.8281V26.1719Z" fill="#4C75A3"/>
</g>
<defs>
<clipPath id="clip0">
<rect width="100.1" height="100" fill="white"/>
</clipPath>
</defs>
</svg>
